<mxfile host="65bd71144e">
    <diagram id="zpSeZmU-PfWslatmxeUN" name="Page-1">
        <mxGraphModel dx="1171" dy="821" grid="1" gridSize="10" guides="1" tooltips="1" connect="1" arrows="1" fold="1" page="1" pageScale="1" pageWidth="2336" pageHeight="1654" math="0" shadow="0">
            <root>
                <mxCell id="0"/>
                <mxCell id="1" parent="0"/>
                <mxCell id="2" value="order" style="swimlane;childLayout=stackLayout;resizeParent=1;resizeParentMax=0;horizontal=0;startSize=20;horizontalStack=0;fillColor=#60a917;strokeColor=#2D7600;fontColor=#ffffff;fontSize=13;" vertex="1" parent="1">
                    <mxGeometry x="83" y="80" width="2170" height="860" as="geometry"/>
                </mxCell>
                <mxCell id="61" value="" style="edgeStyle=orthogonalEdgeStyle;rounded=0;orthogonalLoop=1;jettySize=auto;html=1;" edge="1" parent="2" source="58" target="60">
                    <mxGeometry relative="1" as="geometry"/>
                </mxCell>
                <mxCell id="63" value="" style="edgeStyle=orthogonalEdgeStyle;rounded=0;orthogonalLoop=1;jettySize=auto;html=1;" edge="1" parent="2" source="60" target="62">
                    <mxGeometry relative="1" as="geometry">
                        <Array as="points">
                            <mxPoint x="1337" y="710"/>
                        </Array>
                    </mxGeometry>
                </mxCell>
                <mxCell id="3" value="Customer" style="swimlane;startSize=20;horizontal=0;" vertex="1" parent="2">
                    <mxGeometry x="20" width="2150" height="370" as="geometry"/>
                </mxCell>
                <mxCell id="68" value="" style="edgeStyle=orthogonalEdgeStyle;rounded=0;orthogonalLoop=1;jettySize=auto;html=1;" edge="1" parent="3" source="50" target="67">
                    <mxGeometry relative="1" as="geometry"/>
                </mxCell>
                <mxCell id="50" value="&lt;font style=&quot;font-size: 25px&quot;&gt;شروع&lt;/font&gt;" style="ellipse;whiteSpace=wrap;html=1;aspect=fixed;fillColor=#0050ef;strokeColor=#001DBC;fontColor=#ffffff;" vertex="1" parent="3">
                    <mxGeometry x="47" y="60" width="100" height="100" as="geometry"/>
                </mxCell>
                <mxCell id="51" value="&lt;b&gt;&lt;font style=&quot;font-size: 17px&quot;&gt;وارد کردن شماره موبایل&lt;/font&gt;&lt;/b&gt;" style="whiteSpace=wrap;html=1;fontColor=#ffffff;strokeColor=#2D7600;fillColor=#60a917;" vertex="1" parent="3">
                    <mxGeometry x="537" y="210" width="163" height="60" as="geometry"/>
                </mxCell>
                <mxCell id="53" value="&lt;font style=&quot;font-size: 15px&quot;&gt;وارد کردن رمز عبور&lt;/font&gt;" style="whiteSpace=wrap;html=1;fontColor=#ffffff;strokeColor=#2D7600;fillColor=#60a917;" vertex="1" parent="3">
                    <mxGeometry x="914" y="230" width="120" height="40" as="geometry"/>
                </mxCell>
                <mxCell id="57" style="edgeStyle=orthogonalEdgeStyle;rounded=0;orthogonalLoop=1;jettySize=auto;html=1;exitX=0.5;exitY=1;exitDx=0;exitDy=0;entryX=0.5;entryY=1;entryDx=0;entryDy=0;" edge="1" parent="3" source="55" target="53">
                    <mxGeometry relative="1" as="geometry"/>
                </mxCell>
                <mxCell id="58" value="&lt;font style=&quot;font-size: 16px&quot;&gt;وارد کردن موبایل&lt;/font&gt;" style="whiteSpace=wrap;html=1;fontColor=#ffffff;strokeColor=#2D7600;fillColor=#60a917;" vertex="1" parent="3">
                    <mxGeometry x="1147" y="210" width="120" height="60" as="geometry"/>
                </mxCell>
                <mxCell id="132" style="edgeStyle=orthogonalEdgeStyle;rounded=0;orthogonalLoop=1;jettySize=auto;html=1;exitX=1;exitY=0.5;exitDx=0;exitDy=0;" edge="1" parent="3" source="62" target="64">
                    <mxGeometry relative="1" as="geometry"/>
                </mxCell>
                <mxCell id="62" value="&lt;font style=&quot;font-size: 16px&quot;&gt;وارد کردن رمز عبور&lt;/font&gt;" style="whiteSpace=wrap;html=1;fontColor=#ffffff;strokeColor=#2D7600;fillColor=#60a917;" vertex="1" parent="3">
                    <mxGeometry x="1287" y="210" width="120" height="60" as="geometry"/>
                </mxCell>
                <mxCell id="64" value="&lt;font style=&quot;font-size: 25px&quot;&gt;شروع&lt;/font&gt;" style="ellipse;whiteSpace=wrap;html=1;aspect=fixed;fillColor=#0050ef;strokeColor=#001DBC;fontColor=#ffffff;" vertex="1" parent="3">
                    <mxGeometry x="1997" y="190" width="100" height="100" as="geometry"/>
                </mxCell>
                <mxCell id="127" style="edgeStyle=orthogonalEdgeStyle;rounded=0;orthogonalLoop=1;jettySize=auto;html=1;exitX=0.5;exitY=1;exitDx=0;exitDy=0;entryX=0;entryY=0.5;entryDx=0;entryDy=0;" edge="1" parent="3" source="67" target="51">
                    <mxGeometry relative="1" as="geometry"/>
                </mxCell>
                <mxCell id="129" style="edgeStyle=orthogonalEdgeStyle;rounded=0;orthogonalLoop=1;jettySize=auto;html=1;exitX=1;exitY=0.5;exitDx=0;exitDy=0;entryX=0;entryY=0.75;entryDx=0;entryDy=0;" edge="1" parent="3" source="67" target="73">
                    <mxGeometry relative="1" as="geometry"/>
                </mxCell>
                <mxCell id="67" value="قبلا ثبت نام کرده اید" style="rhombus;whiteSpace=wrap;html=1;fontColor=#ffffff;strokeColor=#6F0000;fillColor=#a20025;" vertex="1" parent="3">
                    <mxGeometry x="237" y="70" width="103" height="80" as="geometry"/>
                </mxCell>
                <mxCell id="72" value="&lt;font color=&quot;#000000&quot;&gt;بله&lt;/font&gt;" style="text;html=1;strokeColor=none;fillColor=none;align=center;verticalAlign=middle;whiteSpace=wrap;rounded=0;" vertex="1" parent="3">
                    <mxGeometry x="397" y="210" width="40" height="20" as="geometry"/>
                </mxCell>
                <mxCell id="78" value="" style="edgeStyle=orthogonalEdgeStyle;rounded=0;orthogonalLoop=1;jettySize=auto;html=1;" edge="1" parent="3" source="73" target="77">
                    <mxGeometry relative="1" as="geometry"/>
                </mxCell>
                <mxCell id="73" value="&lt;font style=&quot;font-size: 17px&quot;&gt;ثبت نام در سایت&lt;/font&gt;" style="whiteSpace=wrap;html=1;fontColor=#ffffff;strokeColor=#2D7600;fillColor=#60a917;" vertex="1" parent="3">
                    <mxGeometry x="407" y="70" width="120" height="60" as="geometry"/>
                </mxCell>
                <mxCell id="82" value="" style="edgeStyle=orthogonalEdgeStyle;rounded=0;orthogonalLoop=1;jettySize=auto;html=1;" edge="1" parent="3" source="77" target="81">
                    <mxGeometry relative="1" as="geometry"/>
                </mxCell>
                <mxCell id="77" value="&lt;font style=&quot;font-size: 14px&quot;&gt;وارد کردن شماره موبایل&amp;nbsp;&lt;/font&gt;" style="whiteSpace=wrap;html=1;fontColor=#ffffff;strokeColor=#2D7600;fillColor=#60a917;" vertex="1" parent="3">
                    <mxGeometry x="604" y="70" width="120" height="60" as="geometry"/>
                </mxCell>
                <mxCell id="84" value="" style="edgeStyle=orthogonalEdgeStyle;rounded=0;orthogonalLoop=1;jettySize=auto;html=1;" edge="1" parent="3" source="81" target="83">
                    <mxGeometry relative="1" as="geometry"/>
                </mxCell>
                <mxCell id="90" style="edgeStyle=orthogonalEdgeStyle;rounded=0;orthogonalLoop=1;jettySize=auto;html=1;exitX=0.5;exitY=1;exitDx=0;exitDy=0;entryX=0;entryY=0.75;entryDx=0;entryDy=0;" edge="1" parent="3" source="81" target="86">
                    <mxGeometry relative="1" as="geometry"/>
                </mxCell>
                <mxCell id="81" value="ایرانی هستین" style="rhombus;whiteSpace=wrap;html=1;fontColor=#ffffff;strokeColor=#6F0000;fillColor=#a20025;" vertex="1" parent="3">
                    <mxGeometry x="834" y="60" width="80" height="80" as="geometry"/>
                </mxCell>
                <mxCell id="122" value="" style="edgeStyle=orthogonalEdgeStyle;rounded=0;orthogonalLoop=1;jettySize=auto;html=1;" edge="1" parent="3" source="83" target="121">
                    <mxGeometry relative="1" as="geometry"/>
                </mxCell>
                <mxCell id="83" value="وارد کردن کد ملی" style="whiteSpace=wrap;html=1;fontColor=#ffffff;strokeColor=#2D7600;fillColor=#60a917;" vertex="1" parent="3">
                    <mxGeometry x="974" y="30" width="120" height="30" as="geometry"/>
                </mxCell>
                <mxCell id="123" style="edgeStyle=orthogonalEdgeStyle;rounded=0;orthogonalLoop=1;jettySize=auto;html=1;exitX=1;exitY=0.5;exitDx=0;exitDy=0;entryX=0;entryY=0.5;entryDx=0;entryDy=0;" edge="1" parent="3" source="86" target="121">
                    <mxGeometry relative="1" as="geometry"/>
                </mxCell>
                <mxCell id="86" value="وارد کردن شماره پاسپورت" style="whiteSpace=wrap;html=1;fontColor=#ffffff;strokeColor=#2D7600;fillColor=#60a917;" vertex="1" parent="3">
                    <mxGeometry x="974" y="85" width="120" height="30" as="geometry"/>
                </mxCell>
                <mxCell id="120" value="&lt;font color=&quot;#000000&quot;&gt;خیر&lt;/font&gt;" style="text;html=1;strokeColor=none;fillColor=none;align=center;verticalAlign=middle;whiteSpace=wrap;rounded=0;" vertex="1" parent="3">
                    <mxGeometry x="904" y="130" width="40" height="20" as="geometry"/>
                </mxCell>
                <mxCell id="118" value="&lt;font color=&quot;#000000&quot;&gt;خیر&lt;/font&gt;" style="text;html=1;strokeColor=none;fillColor=none;align=center;verticalAlign=middle;whiteSpace=wrap;rounded=0;" vertex="1" parent="3">
                    <mxGeometry x="907" y="280" width="40" height="20" as="geometry"/>
                </mxCell>
                <mxCell id="126" value="" style="edgeStyle=orthogonalEdgeStyle;rounded=0;orthogonalLoop=1;jettySize=auto;html=1;" edge="1" parent="3" source="121" target="125">
                    <mxGeometry relative="1" as="geometry"/>
                </mxCell>
                <mxCell id="121" value="&lt;font style=&quot;font-size: 15px&quot;&gt;وارد کردن رمز&lt;/font&gt;" style="whiteSpace=wrap;html=1;fontColor=#ffffff;strokeColor=#2D7600;fillColor=#60a917;" vertex="1" parent="3">
                    <mxGeometry x="1174" y="60" width="93" height="40" as="geometry"/>
                </mxCell>
                <mxCell id="125" value="تایید قوانین" style="whiteSpace=wrap;html=1;fontColor=#ffffff;strokeColor=#2D7600;fillColor=#60a917;" vertex="1" parent="3">
                    <mxGeometry x="1304" y="55" width="86" height="50" as="geometry"/>
                </mxCell>
                <mxCell id="76" value="&lt;font color=&quot;#000000&quot;&gt;خیر&lt;/font&gt;" style="text;html=1;strokeColor=none;fillColor=none;align=center;verticalAlign=middle;whiteSpace=wrap;rounded=0;" vertex="1" parent="3">
                    <mxGeometry x="347" y="65" width="40" height="20" as="geometry"/>
                </mxCell>
                <mxCell id="131" style="edgeStyle=orthogonalEdgeStyle;rounded=0;orthogonalLoop=1;jettySize=auto;html=1;exitX=0.5;exitY=0;exitDx=0;exitDy=0;entryX=0.5;entryY=0;entryDx=0;entryDy=0;" edge="1" parent="3" source="55" target="58">
                    <mxGeometry relative="1" as="geometry"/>
                </mxCell>
                <mxCell id="55" value="فراموشی رمز" style="rhombus;whiteSpace=wrap;html=1;fontColor=#ffffff;strokeColor=#6F0000;fillColor=#a20025;" vertex="1" parent="3">
                    <mxGeometry x="767" y="200" width="80" height="80" as="geometry"/>
                </mxCell>
                <mxCell id="130" value="" style="edgeStyle=orthogonalEdgeStyle;rounded=0;orthogonalLoop=1;jettySize=auto;html=1;endArrow=none;" edge="1" parent="3" source="51" target="55">
                    <mxGeometry relative="1" as="geometry">
                        <mxPoint x="803" y="320" as="sourcePoint"/>
                        <mxPoint x="1157" y="320" as="targetPoint"/>
                    </mxGeometry>
                </mxCell>
                <mxCell id="140" style="edgeStyle=orthogonalEdgeStyle;rounded=0;orthogonalLoop=1;jettySize=auto;html=1;exitX=1;exitY=0.25;exitDx=0;exitDy=0;entryX=0.5;entryY=0;entryDx=0;entryDy=0;" edge="1" parent="3" source="134" target="64">
                    <mxGeometry relative="1" as="geometry"/>
                </mxCell>
                <mxCell id="134" value="وارد کردن کد تاییده" style="whiteSpace=wrap;html=1;fontColor=#ffffff;strokeColor=#2D7600;fillColor=#60a917;" vertex="1" parent="3">
                    <mxGeometry x="1477" y="50" width="123" height="60" as="geometry"/>
                </mxCell>
                <mxCell id="45" value="Postex" style="swimlane;startSize=20;horizontal=0;" vertex="1" parent="2">
                    <mxGeometry x="20" y="370" width="2150" height="220" as="geometry"/>
                </mxCell>
                <mxCell id="47" value="Vendor" style="swimlane;startSize=20;horizontal=0;" vertex="1" parent="2">
                    <mxGeometry x="20" y="590" width="2150" height="270" as="geometry"/>
                </mxCell>
                <mxCell id="60" value="&lt;font style=&quot;font-size: 17px&quot;&gt;پیامک کردن رمز&amp;nbsp;&lt;br&gt;از طریق کاوه نگار&lt;/font&gt;" style="whiteSpace=wrap;html=1;fontColor=#ffffff;strokeColor=#2D7600;fillColor=#60a917;" vertex="1" parent="47">
                    <mxGeometry x="1147" y="105" width="120" height="60" as="geometry"/>
                </mxCell>
                <mxCell id="136" value="ارسال کرد تاییده" style="whiteSpace=wrap;html=1;fontColor=#ffffff;strokeColor=#2D7600;fillColor=#60a917;" vertex="1" parent="47">
                    <mxGeometry x="1497" y="105" width="120" height="60" as="geometry"/>
                </mxCell>
                <mxCell id="138" style="edgeStyle=orthogonalEdgeStyle;rounded=0;orthogonalLoop=1;jettySize=auto;html=1;exitX=1;exitY=0.5;exitDx=0;exitDy=0;entryX=0;entryY=0.25;entryDx=0;entryDy=0;" edge="1" parent="2" source="125" target="136">
                    <mxGeometry relative="1" as="geometry"/>
                </mxCell>
                <mxCell id="139" style="edgeStyle=orthogonalEdgeStyle;rounded=0;orthogonalLoop=1;jettySize=auto;html=1;exitX=0.5;exitY=0;exitDx=0;exitDy=0;" edge="1" parent="2" source="136" target="134">
                    <mxGeometry relative="1" as="geometry"/>
                </mxCell>
                <mxCell id="124" style="edgeStyle=orthogonalEdgeStyle;rounded=0;orthogonalLoop=1;jettySize=auto;html=1;exitX=1;exitY=0.5;exitDx=0;exitDy=0;entryX=0;entryY=0.5;entryDx=0;entryDy=0;" edge="1" parent="1" source="87" target="121">
                    <mxGeometry relative="1" as="geometry"/>
                </mxCell>
                <mxCell id="87" value="کد اتباع" style="whiteSpace=wrap;html=1;fontColor=#ffffff;strokeColor=#2D7600;fillColor=#60a917;" vertex="1" parent="1">
                    <mxGeometry x="1077" y="220" width="120" height="30" as="geometry"/>
                </mxCell>
                <mxCell id="89" style="edgeStyle=orthogonalEdgeStyle;rounded=0;orthogonalLoop=1;jettySize=auto;html=1;exitX=0.5;exitY=1;exitDx=0;exitDy=0;entryX=0;entryY=0.75;entryDx=0;entryDy=0;" edge="1" parent="1" source="81" target="87">
                    <mxGeometry relative="1" as="geometry"/>
                </mxCell>
                <mxCell id="117" value="&lt;font color=&quot;#000000&quot;&gt;بله&lt;/font&gt;" style="text;html=1;strokeColor=none;fillColor=none;align=center;verticalAlign=middle;whiteSpace=wrap;rounded=0;" vertex="1" parent="1">
                    <mxGeometry x="1230" y="260" width="40" height="20" as="geometry"/>
                </mxCell>
                <mxCell id="119" value="&lt;font color=&quot;#000000&quot;&gt;بله&lt;/font&gt;" style="text;html=1;strokeColor=none;fillColor=none;align=center;verticalAlign=middle;whiteSpace=wrap;rounded=0;" vertex="1" parent="1">
                    <mxGeometry x="1017" y="150" width="40" height="20" as="geometry"/>
                </mxCell>
            </root>
        </mxGraphModel>
    </diagram>
</mxfile>